<svg id="Layer_1" data-name="Layer 1" xmlns="http://www.w3.org/2000/svg" xmlns:xlink="http://www.w3.org/1999/xlink" viewBox="0 0 32 32"><defs><style>.cls-1{fill:none;}.cls-2{clip-path:url(#clip-path);}.cls-3{fill:#ed1e24;}.cls-4{fill:#fff;}.cls-5{fill:#243e90;}</style><clipPath id="clip-path"><rect class="cls-1" x="2.9" y="9.11" width="26.69" height="13.5"/></clipPath></defs><title>Artboard 8</title><g class="cls-2"><rect class="cls-3" x="2.6" y="9.14" width="27" height="13.5"/><rect class="cls-4" x="2.6" y="10.95" width="27.75" height="1.37"/><rect class="cls-4" x="2.6" y="13.84" width="27.48" height="1.37"/><rect class="cls-4" x="2.11" y="16.72" width="28.23" height="1.37"/><rect class="cls-4" x="2.11" y="19.6" width="28.23" height="1.37"/><rect class="cls-5" x="2.11" y="8.74" width="13.15" height="7.98"/><polygon class="cls-4" points="5.08 10.46 5.36 10.94 5.99 11.02 5.54 11.39 5.64 11.92 5.08 11.67 4.52 11.92 4.63 11.39 4.18 11.02 4.8 10.94 5.08 10.46"/><polygon class="cls-4" points="5.08 13.45 5.36 13.93 5.99 14.01 5.54 14.38 5.64 14.91 5.08 14.66 4.52 14.91 4.63 14.38 4.18 14.01 4.8 13.93 5.08 13.45"/><polygon class="cls-4" points="9.02 13.45 9.3 13.93 9.93 14.01 9.47 14.38 9.58 14.91 9.02 14.66 8.46 14.91 8.57 14.38 8.11 14.01 8.74 13.93 9.02 13.45"/><polygon class="cls-4" points="12.89 13.45 13.17 13.93 13.8 14.01 13.35 14.38 13.45 14.91 12.89 14.66 12.34 14.91 12.44 14.38 11.99 14.01 12.62 13.93 12.89 13.45"/><polygon class="cls-4" points="9.02 10.46 9.3 10.94 9.93 11.02 9.47 11.39 9.58 11.92 9.02 11.67 8.46 11.92 8.57 11.39 8.11 11.02 8.74 10.94 9.02 10.46"/><polygon class="cls-4" points="12.89 10.46 13.17 10.94 13.8 11.02 13.35 11.39 13.45 11.92 12.89 11.67 12.34 11.92 12.44 11.39 11.99 11.02 12.62 10.94 12.89 10.46"/></g></svg>