<svg id="Layer_1" data-name="Layer 1" xmlns="http://www.w3.org/2000/svg" xmlns:xlink="http://www.w3.org/1999/xlink" viewBox="0 0 32 32"><defs><style>.cls-1{fill:none;}.cls-2{clip-path:url(#clip-path);}.cls-3{fill:#2a2d7c;}.cls-4{fill:#fff;}.cls-5{fill:#ed2024;}</style><clipPath id="clip-path"><rect class="cls-1" x="2.5" y="9.08" width="27" height="13.34"/></clipPath></defs><title>Artboard 7</title><g class="cls-2"><rect class="cls-3" x="2.52" y="9.08" width="26.99" height="13.49"/><rect class="cls-4" x="-0.6" y="18.77" width="15.98" height="2.82" transform="translate(23.22 34.73) rotate(152.71)"/><rect class="cls-4" x="-1.28" y="9.75" width="15.98" height="2.82" transform="translate(7.59 24.15) rotate(-152.83)"/><rect class="cls-4" x="15.46" y="10.74" width="15.98" height="2.82" transform="translate(-2.96 12.1) rotate(-27.29)"/><rect class="cls-4" x="16.42" y="18.58" width="15.98" height="2.82" transform="translate(11.82 -8.94) rotate(27.17)"/><rect class="cls-5" x="0.31" y="11.96" width="15.98" height="1.03" transform="translate(6.61 -2.41) rotate(27.17)"/><rect class="cls-5" x="16.46" y="19.03" width="15.98" height="1.03" transform="translate(11.62 -9.01) rotate(27.17)"/><rect class="cls-5" x="0.31" y="19.62" width="15.98" height="1.03" transform="translate(24.91 34.23) rotate(152.71)"/><rect class="cls-5" x="14.95" y="11.41" width="15.98" height="1.03" transform="translate(48.79 12.01) rotate(152.71)"/><rect class="cls-4" x="2.5" y="13.55" width="27" height="4.5"/><rect class="cls-4" x="9.2" y="13.52" width="13.63" height="4.5" transform="translate(31.78 -0.24) rotate(90)"/><rect class="cls-5" x="2.5" y="14.48" width="27.15" height="2.63"/><rect class="cls-5" x="9.07" y="14.57" width="13.86" height="2.63" transform="translate(31.89 -0.12) rotate(90)"/></g></svg>