<svg id="Layer_1" data-name="Layer 1" xmlns="http://www.w3.org/2000/svg" xmlns:xlink="http://www.w3.org/1999/xlink" viewBox="0 0 32 32"><defs><style>.cls-1{fill:none;}.cls-2{fill:#2a2d7c;}.cls-3{clip-path:url(#clip-path);}.cls-4{fill:#fff;}.cls-5{fill:#ed2024;}</style><clipPath id="clip-path"><rect class="cls-1" x="1.95" y="9.27" width="14.05" height="7"/></clipPath></defs><title>Artboard 6</title><rect class="cls-2" x="1.95" y="9.27" width="28.1" height="13.33"/><g class="cls-3"><rect class="cls-2" x="1.96" y="9.27" width="14.05" height="7.02"/><rect class="cls-4" x="0.33" y="14.31" width="8.32" height="1.47" transform="translate(15.39 26.36) rotate(152.71)"/><rect class="cls-4" x="-0.02" y="9.61" width="8.32" height="1.47" transform="translate(3.1 21.44) rotate(-152.83)"/><rect class="cls-4" x="8.69" y="10.13" width="8.32" height="1.47" transform="translate(-3.55 7.1) rotate(-27.29)"/><rect class="cls-4" x="9.2" y="14.21" width="8.32" height="1.47" transform="translate(8.3 -4.45) rotate(27.17)"/><rect class="cls-5" x="0.81" y="10.76" width="8.32" height="0.54" transform="translate(5.59 -1.05) rotate(27.17)"/><rect class="cls-5" x="9.21" y="14.44" width="8.32" height="0.54" transform="translate(8.19 -4.48) rotate(27.17)"/><rect class="cls-5" x="0.81" y="14.75" width="8.32" height="0.54" transform="translate(16.27 26.09) rotate(152.71)"/><rect class="cls-5" x="8.43" y="10.48" width="8.32" height="0.54" transform="translate(28.7 14.53) rotate(152.71)"/><rect class="cls-4" x="1.95" y="11.59" width="14.06" height="2.34"/><rect class="cls-4" x="5.43" y="11.58" width="7.1" height="2.34" transform="translate(21.73 3.77) rotate(90)"/><rect class="cls-5" x="1.95" y="12.08" width="14.13" height="1.37"/><rect class="cls-5" x="5.37" y="12.13" width="7.22" height="1.37" transform="translate(21.79 3.83) rotate(90)"/></g><polygon class="cls-4" points="23 19.29 23.26 20.09 24.11 20.09 23.43 20.59 23.69 21.39 23 20.89 22.32 21.39 22.58 20.59 21.9 20.09 22.74 20.09 23 19.29"/><polygon class="cls-4" points="26.13 13.72 26.34 14.38 27.04 14.38 26.48 14.78 26.69 15.44 26.13 15.03 25.57 15.44 25.79 14.78 25.23 14.38 25.92 14.38 26.13 13.72"/><polygon class="cls-4" points="22.95 10.91 23.16 11.57 23.85 11.57 23.3 11.97 23.51 12.63 22.95 12.22 22.39 12.63 22.6 11.97 22.05 11.57 22.74 11.57 22.95 10.91"/><polygon class="cls-4" points="19.5 14.67 19.71 15.33 20.41 15.33 19.85 15.73 20.06 16.39 19.5 15.98 18.94 16.39 19.16 15.73 18.6 15.33 19.29 15.33 19.5 14.67"/><polygon class="cls-4" points="24.4 16.43 24.57 16.77 24.95 16.83 24.68 17.1 24.74 17.47 24.4 17.3 24.06 17.47 24.13 17.1 23.85 16.83 24.23 16.77 24.4 16.43"/><polygon class="cls-4" points="8.45 18.19 8.78 19.19 9.82 19.19 8.97 19.8 9.3 20.8 8.45 20.18 7.6 20.8 7.93 19.8 7.08 19.19 8.13 19.19 8.45 18.19"/></svg>