<svg id="Layer_1" data-name="Layer 1" xmlns="http://www.w3.org/2000/svg" viewBox="0 0 32 32"><defs><style>.cls-1{fill:none;stroke:#231f20;stroke-miterlimit:10;stroke-width:0.99px;}.cls-2{fill:#ed1e24;}</style></defs><title>Artboard 3</title><rect class="cls-1" x="2.65" y="9.46" width="26.91" height="13.45"/><path class="cls-2" d="M15.69,19.23l-2.39.33c.06-.27.12-.55.19-.82l0-.11c-.2-.18-.4-.36-.61-.53-.69-.59-1.37-1.15-2-1.67l.63-.28V16a4.1,4.1,0,0,0-.4-1.66l1.5.31s.29.12.41-.81a5.7,5.7,0,0,0,1.17,1.29c.09.07.22.14.3.1s.06-.52,0-.71c-.26-1.12-.43-2.31-.43-2.31a6.68,6.68,0,0,0,.85.43,4.93,4.93,0,0,0,1.2-1.8l.25.51a10.6,10.6,0,0,0,.59,1,1,1,0,0,0,.1.14l1.14-.29a16.08,16.08,0,0,0-.5,2.67c0,.07,0,.22.11.28s.14.06.43-.14a3.29,3.29,0,0,0,1-1.21l.27.74c.05.15,1.65-.24,1.65-.24-.17.56-.31,1-.42,1.3a.59.59,0,0,0,0,.5c.13.25.56.24.67.24l-2.6,2.33h0s.07.3.2.9l-2.51-.33s-.23-.06-.21.43S16.3,22,16.3,22h-.38L16,19.45S16.05,19.18,15.69,19.23Z"/></svg>