<svg id="Layer_1" data-name="Layer 1" xmlns="http://www.w3.org/2000/svg" viewBox="0 0 32 32"><defs><style>.cls-1{fill:#243e90;}.cls-2{fill:#ffcd05;}</style></defs><title>Artboard 5</title><rect class="cls-1" x="2.49" y="9.23" width="27" height="13.5"/><polygon class="cls-2" points="15.85 10.79 16.05 11.21 16.51 11.27 16.18 11.6 16.26 12.06 15.85 11.84 15.43 12.06 15.51 11.6 15.18 11.27 15.64 11.21 15.85 10.79"/><polygon class="cls-2" points="18.14 11.42 18.34 11.84 18.8 11.91 18.47 12.23 18.55 12.69 18.14 12.48 17.72 12.69 17.8 12.23 17.47 11.91 17.93 11.84 18.14 11.42"/><polygon class="cls-2" points="19.8 13.07 20.01 13.49 20.47 13.55 20.14 13.88 20.21 14.34 19.8 14.12 19.39 14.34 19.47 13.88 19.13 13.55 19.59 13.49 19.8 13.07"/><polygon class="cls-2" points="20.38 15.32 20.59 15.74 21.05 15.8 20.72 16.13 20.8 16.59 20.38 16.37 19.97 16.59 20.05 16.13 19.72 15.8 20.18 15.74 20.38 15.32"/><polygon class="cls-2" points="19.8 17.67 20.01 18.09 20.47 18.16 20.14 18.48 20.21 18.94 19.8 18.72 19.39 18.94 19.47 18.48 19.13 18.16 19.59 18.09 19.8 17.67"/><polygon class="cls-2" points="18.14 19.34 18.34 19.75 18.8 19.82 18.47 20.15 18.55 20.61 18.14 20.39 17.72 20.61 17.8 20.15 17.47 19.82 17.93 19.75 18.14 19.34"/><polygon class="cls-2" points="15.85 19.9 16.05 20.32 16.51 20.38 16.18 20.71 16.26 21.17 15.85 20.95 15.43 21.17 15.51 20.71 15.18 20.38 15.64 20.32 15.85 19.9"/><polygon class="cls-2" points="13.55 19.34 13.76 19.75 14.22 19.82 13.89 20.15 13.97 20.61 13.55 20.39 13.14 20.61 13.22 20.15 12.89 19.82 13.35 19.75 13.55 19.34"/><polygon class="cls-2" points="11.89 17.67 12.1 18.09 12.56 18.16 12.22 18.48 12.3 18.94 11.89 18.72 11.47 18.94 11.55 18.48 11.22 18.16 11.68 18.09 11.89 17.67"/><polygon class="cls-2" points="11.31 15.32 11.51 15.74 11.97 15.8 11.64 16.13 11.72 16.59 11.31 16.37 10.89 16.59 10.97 16.13 10.64 15.8 11.1 15.74 11.31 15.32"/><polygon class="cls-2" points="11.89 13.07 12.1 13.49 12.56 13.55 12.22 13.88 12.3 14.34 11.89 14.12 11.47 14.34 11.55 13.88 11.22 13.55 11.68 13.49 11.89 13.07"/><polygon class="cls-2" points="13.43 11.43 13.72 11.8 14.18 11.78 13.92 12.17 14.08 12.6 13.64 12.47 13.27 12.76 13.26 12.29 12.87 12.04 13.31 11.88 13.43 11.43"/></svg>