<svg id="Layer_1" data-name="Layer 1" xmlns="http://www.w3.org/2000/svg" viewBox="0 0 32 32"><defs><style>.cls-1{fill:none;stroke:#231f20;stroke-miterlimit:10;stroke-width:1.5px;}</style></defs><title>Artboard 1</title><path class="cls-1" d="M2.37,14.32a9,9,0,0,1,.71-2.39c1.08-1.57,3.22-1.81,7-2.19A57.52,57.52,0,0,1,16,9.53c1.2,0,1.59,0,2.08,0,.68,0,1.41,0,2.59.13,3,.22,6.5.66,7.63,1.34a2.54,2.54,0,0,1,.62.57c.51.61.71,1.29.9,3A19.58,19.58,0,0,1,30,19a6.56,6.56,0,0,1-.3,1.84c-.47,1.05-1.38,1.59-3.21,2.66a11.66,11.66,0,0,1-2.82,1.22,2.81,2.81,0,0,1-1.7.1,4,4,0,0,1-1.67-1.52s-.32-.46-2.29-2.83a1.8,1.8,0,0,0-.44-.39,2.43,2.43,0,0,0-1.38-.24,2.92,2.92,0,0,0-1.05.12,2.7,2.7,0,0,0-1.15.95,15.13,15.13,0,0,0-1,1.35,18.12,18.12,0,0,1-1.7,2.06l.11-.13a2.56,2.56,0,0,1-2.85.44,27.45,27.45,0,0,1-5.48-3,3,3,0,0,1-.7-.86,2.43,2.43,0,0,1-.26-1A20.42,20.42,0,0,1,2.37,14.32Z"/></svg>