<svg id="Layer_1" data-name="Layer 1" xmlns="http://www.w3.org/2000/svg" viewBox="0 0 32 32"><defs><style>.cls-1{fill:none;stroke:#231f20;stroke-miterlimit:10;stroke-width:1.5px;}</style></defs><title>Artboard 2</title><path class="cls-1" d="M1.76,13.68l-.09-1.81C3,11.61,4.16,11.43,5,11.31A21.93,21.93,0,0,1,8.76,11a14.54,14.54,0,0,1,2.89.29c.83.17.94.28,2.32.58a8.17,8.17,0,0,0,2.32.3,9.08,9.08,0,0,0,1.4-.19,18.06,18.06,0,0,0,1.8-.43,16.48,16.48,0,0,1,1.87-.35,15.92,15.92,0,0,1,2.37-.1,26.64,26.64,0,0,1,4.08.41c.64.1,1.49.25,2.5.47v1.83a1.1,1.1,0,0,0-.45.17c-.62.4-.63,1.31-.71,2a8.62,8.62,0,0,1-.84,2.94A5.14,5.14,0,0,1,24.76,21a6.32,6.32,0,0,1-3.89-.58,5.66,5.66,0,0,1-1.64-1.14,6.68,6.68,0,0,1-1.71-3.14A3,3,0,0,0,17.13,15a1.28,1.28,0,0,0-.51-.57,1.3,1.3,0,0,0-1.31.11,1.47,1.47,0,0,0-.5.73c-.5,1.4-1.08,2.65-1.25,3a5.24,5.24,0,0,1-2,2.08A6,6,0,0,1,7.67,21c-.88-.11-2.79-.34-3.79-1.76a7.51,7.51,0,0,1-.81-2.28,21.21,21.21,0,0,1-.54-2.54,1.26,1.26,0,0,0-.24-.34A1.5,1.5,0,0,0,1.76,13.68Z"/></svg>